<svg width="42" height="6" viewBox="0 0 42 6" fill="none" xmlns="http://www.w3.org/2000/svg">
<path d="M3.02102 3.57812H2.4879L2.4879 2.15647C2.29045 2.22558 2.1078 2.27988 1.93997 2.31937C1.77213 2.35886 1.59114 2.3786 1.39697 2.3786C1.06789 2.3786 0.8112 2.30127 0.626911 2.1466C0.445913 1.99193 0.355414 1.76815 0.355414 1.47526L0.355414 0.0536023L0.888535 0.0536023L0.888535 1.36666C0.888535 1.55095 0.934607 1.68917 1.02675 1.78131C1.12219 1.87345 1.27686 1.91953 1.49076 1.91953C1.66847 1.91953 1.83137 1.90307 1.97946 1.87016C2.13084 1.83396 2.30032 1.7846 2.4879 1.72207V0.0536023L3.02102 0.0536023L3.02102 3.57812ZM6.15573 3.57813L5.78057 2.56125H4.41815L4.04299 3.57812H3.49012L4.82786 0.0387936L5.38073 0.0387936L6.71353 3.57813H6.15573ZM5.27707 1.10504C5.26719 1.06884 5.24909 1.01454 5.22277 0.942137C5.19973 0.866447 5.17669 0.790757 5.15366 0.715067C5.13062 0.636086 5.11252 0.571915 5.09936 0.522551C5.0829 0.588369 5.06316 0.660768 5.04012 0.739749C5.02038 0.815439 5.00063 0.886193 4.98089 0.95201C4.96114 1.01454 4.94469 1.06555 4.93152 1.10504L4.57611 2.09723H5.63248L5.27707 1.10504ZM8.02651 3.57813H7.49339V0.512679L6.43702 0.512679V0.0536023L9.08288 0.0536023V0.512679H8.02651V3.57813ZM10.1536 3.57813V0.0536023L12.8389 0.0536023V3.57813H12.3107V0.512679L10.6867 0.512679V3.57813H10.1536ZM16.8934 1.81093C16.8934 2.08407 16.8588 2.33253 16.7897 2.55631C16.7239 2.7768 16.6219 2.96767 16.4836 3.12892C16.3487 3.29017 16.1776 3.41358 15.9703 3.49914C15.7662 3.58471 15.5276 3.62749 15.2545 3.62749C14.9748 3.62749 14.7312 3.58471 14.5239 3.49914C14.3199 3.41029 14.1488 3.28688 14.0105 3.12892C13.8756 2.96767 13.7753 2.77515 13.7094 2.55137C13.6436 2.32759 13.6107 2.07913 13.6107 1.80599C13.6107 1.444 13.6699 1.12807 13.7884 0.85822C13.9069 0.588369 14.0879 0.377753 14.3314 0.226373C14.5782 0.0749931 14.8876 -0.000696968 15.2594 -0.000696968C15.6214 -0.000696968 15.9225 0.0749931 16.1628 0.226373C16.4063 0.374462 16.5889 0.585078 16.7107 0.85822C16.8325 1.12807 16.8934 1.44564 16.8934 1.81093ZM14.1734 1.81093C14.1734 2.09394 14.2113 2.33747 14.287 2.5415C14.3627 2.74224 14.4811 2.89856 14.6424 3.01045C14.8036 3.11905 15.0077 3.17335 15.2545 3.17335C15.5046 3.17335 15.7086 3.11905 15.8666 3.01045C16.0246 2.89856 16.1414 2.74224 16.2171 2.5415C16.2928 2.33747 16.3306 2.09394 16.3306 1.81093C16.3306 1.38641 16.245 1.05567 16.0739 0.81873C15.9061 0.578496 15.6346 0.458379 15.2594 0.458379C15.0093 0.458379 14.8036 0.512679 14.6424 0.621278C14.4811 0.729876 14.3627 0.884547 14.287 1.08529C14.2113 1.28603 14.1734 1.52791 14.1734 1.81093ZM20.0507 0.0536023V3.11411H20.5049V4.53577H19.9915V3.57813H17.6319V4.53577L17.1235 4.53577V3.11411H17.395C17.5036 2.91666 17.6089 2.69946 17.7109 2.46252C17.8129 2.22229 17.9034 1.97053 17.9824 1.70726C18.0614 1.4407 18.1272 1.16921 18.1799 0.892774C18.2358 0.61305 18.2753 0.333326 18.2983 0.0536023L20.0507 0.0536023ZM18.7475 0.517615C18.7311 0.705195 18.6982 0.91252 18.6488 1.13959C18.5995 1.36337 18.5386 1.59373 18.4662 1.83067C18.3971 2.06762 18.3181 2.29798 18.2292 2.52176C18.1437 2.74224 18.0532 2.9397 17.9577 3.11411H19.5225V0.517615L18.7475 0.517615ZM23.5698 0.0536023V3.11411H24.0239V4.53577H23.5105V3.57813H21.151V4.53577H20.6426V3.11411H20.914C21.0226 2.91666 21.128 2.69946 21.23 2.46252C21.332 2.22229 21.4225 1.97053 21.5015 1.70726C21.5805 1.4407 21.6463 1.16921 21.6989 0.892774C21.7549 0.61305 21.7944 0.333326 21.8174 0.0536023L23.5698 0.0536023ZM22.2666 0.517615C22.2501 0.705195 22.2172 0.91252 22.1679 1.13959C22.1185 1.36337 22.0576 1.59373 21.9852 1.83067C21.9161 2.06762 21.8371 2.29798 21.7483 2.52176C21.6627 2.74224 21.5722 2.9397 21.4768 3.11411H23.0416V0.517615H22.2666ZM26.5853 3.57813H24.6009V0.0536023L26.5853 0.0536023V0.507742L25.1341 0.507742V1.51475H26.4965V1.96395L25.1341 1.96395V3.11905L26.5853 3.11905V3.57813ZM28.3359 0.0536023C28.7967 0.0536023 29.1323 0.147392 29.3429 0.334972C29.5536 0.519261 29.6589 0.777594 29.6589 1.10997C29.6589 1.25806 29.6342 1.39957 29.5848 1.53449C29.5388 1.66942 29.4614 1.79118 29.3528 1.89978C29.2442 2.00509 29.0994 2.08901 28.9184 2.15153C28.7407 2.21077 28.5219 2.24039 28.2619 2.24039H27.8818V3.57813H27.3487V0.0536023L28.3359 0.0536023ZM28.2964 0.502806L27.8818 0.502806V1.79118H28.2027C28.4034 1.79118 28.5712 1.76979 28.7062 1.72701C28.8411 1.68094 28.9415 1.61018 29.0073 1.51475C29.0764 1.41602 29.1109 1.28768 29.1109 1.12972C29.1109 0.919101 29.0451 0.762785 28.9135 0.660768C28.7851 0.55546 28.5795 0.502806 28.2964 0.502806ZM31.1781 1.76156L29.8651 0.0536023L30.4377 0.0536023L31.7261 1.76156V0.0536023L32.2296 0.0536023V1.76156L33.5179 0.0536023L34.0906 0.0536023L32.7775 1.75663L34.1449 3.57813H33.5476L32.2296 1.79118V3.57813H31.7261V1.79118L30.4031 3.57813H29.8108L31.1781 1.76156ZM37.2788 3.57813H36.6519L35.1513 1.79118V3.57813H34.6182V0.0536023L35.1513 0.0536023V1.76156L36.6223 0.0536023L37.2097 0.0536023L35.7535 1.76156L37.2788 3.57813ZM37.7517 0.0536023H38.2404V1.91953C38.2404 2.0018 38.2387 2.0923 38.2354 2.19102C38.2354 2.28975 38.2338 2.38683 38.2305 2.48226C38.2272 2.5777 38.2223 2.66326 38.2157 2.73895C38.2124 2.81135 38.2091 2.86565 38.2058 2.90185H38.2256L40.0717 0.0536023L40.6838 0.0536023V3.57813H40.1951V1.72701C40.1951 1.63816 40.1968 1.54272 40.2001 1.4407C40.2034 1.3354 40.2067 1.23338 40.21 1.13465C40.2165 1.03593 40.2215 0.950365 40.2248 0.877965C40.2281 0.802275 40.2313 0.747976 40.2346 0.715067H40.2149L38.3638 3.57813H37.7517V0.0536023Z" fill="#0080FD"/>
<path d="M0 4.8122L41.1479 4.8122V5.05902L0 5.05902L0 4.8122Z" fill="#0080FD"/>
<a href="https://t.me/+0cxGWcMqMPY2Yzky">
<rect fill="black" fill-opacity="0" y="-2.07325" width="41.1479" height="7.30573"/>
</a>
</svg>
